#N canvas 482 112 680 496 10;
#X obj 379 10 tgl 15 0 empty empty empty 17 7 0 10 -262144 -159808
-1 1 1;
#X msg 427 36 setup_wiringPi;
#X obj 487 235 vsl 15 128 0 1023 0 0 empty empty empty 0 -9 0 10 -204786
-1 -1 4271 1;
#X obj 553 236 vsl 15 128 0 1023 0 0 empty empty empty 0 -9 0 10 -261234
-1 -1 3774 1;
#X obj 354 35 metro 5;
#X obj 305 68 wiringPi_mcp3008 0 4;
#X obj 332 99 unpack f f;
#X obj 596 292 pack 0 5;
#X obj 595 365 line~;
#X obj 346 422 *~;
#X obj 336 460 dac~;
#X floatatom 422 217 5 0 0 0 - - -, f 5;
#X obj 595 225 / 1024;
#X obj 404 245 osc~ 1000;
#X obj 401 277 *~ 0.9;
#X floatatom 344 217 5 0 0 0 - - -, f 5;
#X obj 326 245 osc~ 1000;
#X floatatom 266 216 5 0 0 0 - - -, f 5;
#X obj 248 244 osc~ 1000;
#X floatatom 187 216 5 0 0 0 - - -, f 5;
#X obj 169 244 osc~ 1000;
#X floatatom 108 216 5 0 0 0 - - -, f 5;
#X obj 90 244 osc~ 1000;
#X floatatom 32 216 5 0 0 0 - - -, f 5;
#X obj 14 244 osc~ 1000;
#X obj 117 191 * 5;
#X obj 351 191 * 2;
#X obj 266 192 * 3;
#X obj 188 191 * 4;
#X obj 43 187 * 6;
#X obj 11 276 *~ 0.1;
#X obj 59 310 +~;
#X obj 213 312 +~;
#X obj 369 309 +~;
#X obj 133 351 +~;
#X obj 300 378 +~;
#X text 20 108 Create a sound to 6th harmonic;
#X obj 245 276 *~ 0.6;
#X obj 323 277 *~ 0.5;
#X obj 87 276 *~ 0.3;
#X obj 166 276 *~ 0.2;
#X connect 0 0 4 0;
#X connect 1 0 5 0;
#X connect 4 0 5 0;
#X connect 5 0 6 0;
#X connect 6 0 2 0;
#X connect 6 0 11 0;
#X connect 6 0 26 0;
#X connect 6 0 27 0;
#X connect 6 0 28 0;
#X connect 6 0 25 0;
#X connect 6 0 29 0;
#X connect 6 1 3 0;
#X connect 6 1 12 0;
#X connect 7 0 8 0;
#X connect 8 0 9 1;
#X connect 9 0 10 0;
#X connect 9 0 10 1;
#X connect 11 0 13 0;
#X connect 12 0 7 0;
#X connect 13 0 14 0;
#X connect 14 0 33 1;
#X connect 15 0 16 0;
#X connect 16 0 38 0;
#X connect 17 0 18 0;
#X connect 18 0 37 0;
#X connect 19 0 20 0;
#X connect 20 0 40 0;
#X connect 21 0 22 0;
#X connect 22 0 39 0;
#X connect 23 0 24 0;
#X connect 24 0 30 0;
#X connect 25 0 21 0;
#X connect 26 0 15 0;
#X connect 27 0 17 0;
#X connect 28 0 19 0;
#X connect 29 0 23 0;
#X connect 30 0 31 0;
#X connect 31 0 34 0;
#X connect 32 0 34 1;
#X connect 33 0 35 1;
#X connect 34 0 35 0;
#X connect 35 0 9 0;
#X connect 37 0 32 1;
#X connect 38 0 33 0;
#X connect 39 0 31 1;
#X connect 40 0 32 0;
